<svg xmlns="http://www.w3.org/2000/svg" width="30" height="30" viewBox="0 0 6.35 6.35">
    <path fill="#fad131" d="M.503 6.309a.724.724 0 01-.481-.536c-.02-.09-.025-.885-.02-2.677L.01.547.079.406c.079-.16.2-.277.364-.354C.556 0 .565 0 3.18 0h2.623l.141.07c.16.078.277.198.354.364.052.113.052.122.052 2.737s0 2.624-.052 2.737a.736.736 0 01-.354.365l-.141.07-2.586.005C.785 6.353.624 6.351.503 6.31zm2.925-1.472v-1.02h-.745v-.745h.745v-.323c0-.177.013-.381.028-.453.092-.436.454-.798.887-.888.073-.015.266-.028.43-.028h.296v.767l-.317.008c-.28.007-.325.015-.394.064-.132.094-.159.186-.159.539v.313h.45c.416 0 .448.003.436.044-.007.024-.03.16-.052.305-.021.143-.045.292-.053.33l-.014.068H4.2V5.857h.735c.797 0 .843-.007.901-.136.043-.094.043-5.006 0-5.1-.064-.142.048-.136-2.653-.136C1.307.485.68.492.631.515.489.578.494.464.495 3.174.496 5.2.502 5.683.53 5.73c.07.126.055.125 1.526.126h1.373z"></path>
</svg>