<svg xmlns="http://www.w3.org/2000/svg" width="30" height="30" viewBox="0 0 6.35 6.35">
    <path fill="#fad131" xmlns="http://www.w3.org/2000/svg" d="M1.814 6.33c-.456-.034-.747-.121-1.035-.312-.37-.246-.602-.597-.712-1.08C.014 4.706-.016 3.351.01 2.364c.017-.68.028-.828.073-1.009C.262.632.745.187 1.51.043 1.711.005 1.918 0 3.185 0c1.277 0 1.473.005 1.68.044.76.143 1.242.59 1.428 1.324.056.22.057.242.057 1.778 0 1.41-.004 1.574-.045 1.766-.12.557-.411.957-.87 1.195-.254.132-.506.193-.916.223-.38.027-2.322.027-2.705 0zm3.012-.606c.252-.058.424-.147.586-.301.16-.152.253-.316.32-.56.04-.148.045-.304.045-1.692 0-1.66 0-1.655-.143-1.96C5.507.943 5.208.714 4.88.635 4.678.586 4.09.561 3.185.561c-1.05 0-1.533.027-1.77.099-.41.125-.666.4-.778.838-.04.15-.044.325-.044 1.673 0 1.65.002 1.669.154 1.979.074.152.296.376.446.453.314.16.532.176 2.154.168 1.089-.006 1.337-.014 1.479-.047zm-1.952-.95a1.684 1.684 0 01-1.139-.848 1.53 1.53 0 01-.176-.839c.022-.437.166-.758.48-1.073a1.56 1.56 0 011.146-.467c.453 0 .837.156 1.146.467.2.2.311.377.407.639.06.163.066.216.066.518 0 .301-.007.354-.066.518a1.615 1.615 0 01-.408.64c-.138.14-.227.203-.411.295-.356.175-.661.22-1.045.15zm.5-.559c.33-.061.626-.296.778-.615.074-.156.08-.187.08-.43 0-.241-.006-.273-.08-.428a1.058 1.058 0 10-.777 1.473zm1.343-2.409c-.26-.137-.271-.514-.02-.66.325-.192.7.174.523.508a.382.382 0 01-.503.152z"></path>
</svg>